<svg id="final_4" data-name="final 4" xmlns="http://www.w3.org/2000/svg" viewBox="0 0 108.66 92.32"><defs><style>.cls-1{fill:#39b54a;}</style></defs><title>opportunities</title><path class="cls-1" d="M92,133c-.62,2.07-.82,3.32-2.08,7.54L73.68,120.47c8.12-3,17-6.41,25.32-9.47-.49,2.92-2,5.58-2.34,7.39l17.64,8.94c0-5.25,0-10.17-.07-15.08C114,103,113,104,119,104c.9,0,3,0,3.42-.94H105.77c7.61-9.85,14.53-18.8,21.92-28.38C135,84,142.51,93.42,150,103c-3.1.27-5.89,0-8.5.21v24.58c3.5-2,6.55-3.81,9.65-5.5C159,118,158,117.71,161,123c-.88-3.48-1.88-6.73-3.06-11.42l24.4,8.82-16.06,19.91c-1-2.48-1.8-4.35-2.79-6.72-15.47,5.63-24.24,15.5-22.37,32.95h-6.74c.09-4.5-1-8.81,2.68-12.95,3.94-4.48,3.12-12.9-.81-17.49-3.51-4.1-15.06-2.34-17.44,2.47-3.1,6.3-2.92,11.53,2.26,17.11,1.9,2,.77,6.92,1,10.89h-7.82c0-1.92-.14-3.71,0-5.48,1.18-12.33-6-19.32-15.56-25C97,135,94,134,92,133Zm36.54,2.5c2.13-3.49,4.55-5.75,4.53-8,0-1.57-3.43-4.42-5.16-4.31s-4.87,3.26-4.73,4.85C123.37,130.26,126,132.25,128.54,135.5Z" transform="translate(-73.68 -74.68)"/><path class="cls-1" d="M114,167a16.7,16.7,0,0,0,3-9c0-5-6-20-4-21s12-16,12-16l10,2,8,19-3,23s1,2,2,2Z" transform="translate(-73.68 -74.68)"/></svg>