<svg id="final_1.3" data-name="final 1.3" xmlns="http://www.w3.org/2000/svg" xmlns:xlink="http://www.w3.org/1999/xlink" viewBox="0 0 104.01 103.95"><defs><style>.cls-1{fill:#39b54a;}.cls-2{fill:url(#linear-gradient);}.cls-3{fill:url(#linear-gradient-2);}</style><linearGradient id="linear-gradient" x1="154.5" y1="145.35" x2="129.5" y2="120.35" gradientUnits="userSpaceOnUse"><stop offset="0" stop-color="#fdc70c"/><stop offset="0.32" stop-color="#f6961f"/><stop offset="0.62" stop-color="#f06e2e"/><stop offset="0.85" stop-color="#ec5638"/><stop offset="1" stop-color="#eb4d3b"/></linearGradient><linearGradient id="linear-gradient-2" x1="103.7" y1="94.3" x2="128.94" y2="119.54" xlink:href="#linear-gradient"/></defs><title>comp explorer4</title><path class="cls-1" d="M129.17,68A52,52,0,1,1,77,119.61,51.82,51.82,0,0,1,129.17,68Zm-.25,93.75A41.88,41.88,0,1,0,129.07,78c-22.91-.09-42.19,19.18-42,42A42.09,42.09,0,0,0,128.92,161.72Z" transform="translate(-76.99 -67.97)"/><path class="cls-2" d="M154.06,145.71,123.57,128l-.33-1.3c1.68-.55,3.33-1.49,5-1.57,3.76-.18,5.64-2,5.91-5.71.13-1.79,1-3.52,1.52-5.28l1.36.16L154.88,145Z" transform="translate(-76.99 -67.97)"/><path class="cls-3" d="M103.93,94.07l31.95,18.52c-2.77,1-4.38,2-6,2.09-4.18.22-5.76,1.76-6,5.93-.11,1.66-1,3.26-1.61,4.89l-1.3-.11L103.15,94.84Z" transform="translate(-76.99 -67.97)"/></svg>