<svg id="final_2" data-name="final 2" xmlns="http://www.w3.org/2000/svg" viewBox="0 0 153 81.3"><defs><style>.cls-1{fill:#39b54a;}</style></defs><title>match</title><path class="cls-1" d="M145.06,148.49c-.7-.26-1.32-.5-2-.71-4.93-1.64-8.43.3-9.43,5.36-.24,1.27-.57,1.88-2,2a9.62,9.62,0,0,0-3.62,1.27,4.74,4.74,0,0,0-2.36,5.66,17.22,17.22,0,0,0,1,2.85,27.71,27.71,0,0,0,1.41,2.53c-1.78,1.64-3.63,2.68-6.14,1.83a4.55,4.55,0,0,1-2.18-7.14c1.58-1.94,3.24-3.81,4.86-5.72.28-.33.57-.65.83-1,.57-.78.75-1.63-.06-2.31s-1.59-.36-2.25.4c-2.48,2.88-5,5.75-7.47,8.62-.47.55-.92,1.11-1.41,1.64a4.82,4.82,0,0,1-5.53,1.3c-2.29-.93-4.06-3.07-3.72-5.12a8.05,8.05,0,0,1,1.86-3.62c2.66-3.23,5.51-6.31,8.23-9.5a2.51,2.51,0,0,0,.49-1.66c0-.3-.69-.8-1-.77a2.31,2.31,0,0,0-1.42.73c-3.58,3.84-7.11,7.73-10.66,11.59a3.93,3.93,0,0,1-5.56.47,11.56,11.56,0,0,1-1.54-1.51c-1.65-2-1.84-3.61-.21-5.59,3.12-3.79,6.4-7.45,9.61-11.16,1.33-1.52,2.65-3.06,4-4.57.65-.72.79-1.45.06-2.15s-1.44-.39-2.07.32q-7.17,8.11-14.36,16.22c-.32.36-.63.73-1,1.08-1.86,2-3.46,2.25-5.89.8-2-1.21-3.43-4.35-2.73-6.21a5.17,5.17,0,0,1,1-1.4l19-21.54a16.13,16.13,0,0,0,1.31-1.54c2.67-3.86,6.56-6.12,10.62-8.18a3.83,3.83,0,0,0,.63-.34c3.24-2.49,7-3,10.89-2.67a1.72,1.72,0,0,1,1.64,1.07q1.4,2.85,2.94,5.63c2.4,4.31,5.05,5.59,9.91,4.85a10.08,10.08,0,0,0,6.91-3.77,3.2,3.2,0,0,0,.28-4c-.93-1.51-1.77-3.07-2.8-4.86a22.64,22.64,0,0,0,11.91-3.28,166.76,166.76,0,0,0,17.83,31l-3.72,3.52a53.43,53.43,0,0,0-6.36-3.21c-3.43-1.21-6.05.05-7.59,3.33-.6,1.29-1,2.68-1.47,4C149.15,142.5,147.84,143.15,145.06,148.49Z" transform="translate(-45.33 -88.28)"/><path class="cls-1" d="M88.4,106.93c5.14,1.36,9.59-.57,13.84-3.43,3.63-2.45,7.27-4.89,11-7.13A10.07,10.07,0,0,1,117.83,95c5-.17,9.93,0,14.89-.09a4.7,4.7,0,0,1,4.55,2.72c2.73,5,5.4,10.1,8.07,15.17.93,1.77.46,3.24-1.26,4.3a8,8,0,0,1-11.18-3c-1.2-2.25-2.36-4.52-3.62-6.74a1.93,1.93,0,0,0-1.38-.85c-2.74-.09-5.49-.07-8.23,0a3.51,3.51,0,0,0-1.62.44,121,121,0,0,0-10.76,6.45,43.83,43.83,0,0,0-6.7,6.71C94.51,127,88.52,134,82.53,140.92c-.64.76-1.09,1-2,.37-2.58-1.67-5.24-3.22-7.65-4.69,2.9-4.8,6-9.42,8.58-14.33S86,112.23,88.4,106.93Z" transform="translate(-45.33 -88.28)"/><path class="cls-1" d="M45.33,132.93,66.05,90.15,70.7,93q7.5,4.62,15,9.25c.65.39,1.2.69.85,1.76C82.22,116.88,76,128.66,66.61,138.61c-2,2.08-2,2.09-4.53,1.06Z" transform="translate(-45.33 -88.28)"/><path class="cls-1" d="M158.21,101l20-12.67,20.11,41.46-11.1,4.45c-1.69.67-3.44,1.24-5.07,2.05a2.45,2.45,0,0,1-3.43-.73,83.41,83.41,0,0,1-11.07-16C164.38,113.45,161.38,107.22,158.21,101Z" transform="translate(-45.33 -88.28)"/><path class="cls-1" d="M151,159.68c-.25,3.52-3.78,6.25-6.85,5.15a4.16,4.16,0,0,1-1.7-1.24c-2-2.36-3.88-4.77-5.79-7.17-1.47-1.85-1.11-4.08.91-5.84s4.32-1.82,5.92-.13c2.15,2.26,4.3,4.53,6.35,6.88A10.09,10.09,0,0,1,151,159.68Z" transform="translate(-45.33 -88.28)"/><path class="cls-1" d="M161.63,152.46c-.24,2.83-3.11,5.75-5.78,5.56a4.77,4.77,0,0,1-2.66-1.2c-1.56-1.42-3-3-4.4-4.58-1.68-1.81-1.67-3.43,0-5.22,2.1-2.3,4.14-2.74,6.05-1.24s3.78,3,5.57,4.58A8.25,8.25,0,0,1,161.63,152.46Z" transform="translate(-45.33 -88.28)"/><path class="cls-1" d="M158.36,142.33c0-2.82,1.66-4.48,4.62-4.56s6.59,2.87,6.63,5.5c0,2.9-2.11,5.46-4.64,5.52C161.81,148.86,158.4,145.53,158.36,142.33Z" transform="translate(-45.33 -88.28)"/><path class="cls-1" d="M127.67,161.29a3.66,3.66,0,0,1,2.3-3.19c1.21-.66,2.56-1.29,3.75-.16a41,41,0,0,1,4.64,5.05,3.56,3.56,0,0,1-.67,4.49c-1.39,1.24-4.15,1.76-5.39,1a2.52,2.52,0,0,1-.67-.74c-1.1-1.58-2.2-3.15-3.25-4.76A11.32,11.32,0,0,1,127.67,161.29Z" transform="translate(-45.33 -88.28)"/></svg>