<svg id="final_1.1" data-name="final 1.1" xmlns="http://www.w3.org/2000/svg" viewBox="0 0 124 118.5"><defs><style>.cls-1{fill:#fed014;}.cls-2{fill:#39b54a;}.cls-3{fill:#f06f3d;}</style></defs><title>comp explorer2</title><path class="cls-1" d="M127.5,68.5c.38,1.23.69,2.47,1,3.7l.91,3.7c.61,2.46,1.14,4.93,1.65,7.4,0,4.94,0,9.87,0,14.81l.13,29.63.12,29.62.07,14.81c-.51,2.47-1,4.94-1.59,7.42s-1.16,4.94-1.85,7.41c-.71-2.47-1.32-4.93-1.91-7.4s-1.13-4.93-1.65-7.4l-.06-14.81-.13-29.63-.12-29.62c0-4.94,0-9.88-.1-14.81.48-2.47,1-4.94,1.58-7.42l.88-3.7C126.83,71,127.13,69.74,127.5,68.5Z" transform="translate(-66 -68.5)"/><path class="cls-1" d="M66,127c1.29-.38,2.58-.68,3.88-1l3.87-.9c2.58-.6,5.17-1.12,7.75-1.61,5.17.06,10.33,0,15.5,0h77.5c2.58.52,5.17,1,7.75,1.62s5.17,1.18,7.75,1.88c-2.58.7-5.17,1.3-7.75,1.88s-5.17,1.1-7.75,1.62H97c-5.17,0-10.33,0-15.5,0-2.58-.5-5.17-1-7.75-1.62l-3.87-.9C68.58,127.68,67.29,127.38,66,127Z" transform="translate(-66 -68.5)"/><path class="cls-2" d="M127.32,173.29c-25.29-.69-45-19.53-45.17-45.38-.15-25,20.74-45.42,45.72-45.22a45.3,45.3,0,0,1-.55,90.6Zm7.14-38.09c10.07-.3,18.47-9.86,17.5-21.17-.34-4-1.64-6.58-6.4-5.81-3.22.53-6.17.3-7.33-3.85-.3-1.09-2.51-2.19-3.93-2.31a68.4,68.4,0,0,0-11.45,0c-1.41.12-3.62,1.24-3.91,2.32-1.23,4.55-4.58,3.73-7.84,4-1.78.15-4.51,1-5,2.3-4.53,11.27,6.13,25.29,16.75,24.42l5.71-5.89Zm-28.62-7.39c0,5.79-.06,11.58,0,17.37.07,5.44,1.77,7.19,7.16,7.24,8.42.08,16.84,0,25.26,0,13,0,13,0,13-12.91,0-4.11,0-8.22,0-11.25-4.9,2.87-9.27,6.19-14.18,8.09-4.42,1.71-8.41,4.65-14.52,1.27C117,134.56,110.8,132.87,105.84,127.81ZM132,134.88c-1.45-1.72-2.47-2.92-3.5-4.12-.8,1.24-2.27,2.51-2.22,3.72,0,1.41,1.43,2.78,2.23,4.16Z" transform="translate(-66 -68.5)"/><path class="cls-1" d="M134.46,135.2l-5.92-6-5.71,5.89c-10.62.87-21.28-13.15-16.75-24.42.51-1.27,3.24-2.15,5-2.3,3.26-.28,6.61.54,7.84-4,.29-1.08,2.5-2.2,3.91-2.32a68.4,68.4,0,0,1,11.45,0c1.42.12,3.63,1.22,3.93,2.31,1.16,4.15,4.11,4.38,7.33,3.85,4.76-.77,6.06,1.79,6.4,5.81C152.93,125.34,144.53,134.9,134.46,135.2ZM136.6,108c-3-4.2-13.58-4-15.89,0Z" transform="translate(-66 -68.5)"/><path class="cls-1" d="M105.84,127.81c5,5.06,11.19,6.75,16.75,9.83,6.11,3.38,10.1.44,14.52-1.27,4.91-1.9,9.28-5.22,14.18-8.09,0,3,0,7.14,0,11.25,0,12.92,0,12.92-13,12.91-8.42,0-16.84.06-25.26,0-5.39,0-7.09-1.8-7.16-7.24C105.78,139.39,105.84,133.6,105.84,127.81Z" transform="translate(-66 -68.5)"/><path class="cls-1" d="M132,134.88l-3.49,3.76c-.8-1.38-2.18-2.75-2.23-4.16,0-1.21,1.42-2.48,2.22-3.72C129.55,132,130.57,133.16,132,134.88Z" transform="translate(-66 -68.5)"/><path class="cls-2" d="M136.6,108H120.71C123,104,133.58,103.8,136.6,108Z" transform="translate(-66 -68.5)"/><path class="cls-3" d="M99.4,88.45a15.65,15.65,0,0,0-4.26-.15,5.7,5.7,0,0,0-3.6,1.56A6.69,6.69,0,0,0,90,93.4a15.48,15.48,0,0,0,0,4.08,38,38,0,0,0,1.9,8.14,74.34,74.34,0,0,0,3.14,7.83,105.59,105.59,0,0,0,8.4,14.69A101.68,101.68,0,0,0,114,141.33a88.76,88.76,0,0,0,12.59,11.2,112.4,112.4,0,0,0,14.29,9.08c2.49,1.34,5,2.54,7.65,3.64a54.84,54.84,0,0,0,8,2.73c2.69.65,5.56,1.16,8.14.48a3.89,3.89,0,0,0,2.76-2.53,9.51,9.51,0,0,0,.19-4.19,9.32,9.32,0,0,1,.39,4.34,4.18,4.18,0,0,1-1,2.08,5.37,5.37,0,0,1-1.93,1.34,12,12,0,0,1-4.47.76,29.88,29.88,0,0,1-4.44-.36,65.76,65.76,0,0,1-16.63-5.5,93.51,93.51,0,0,1-28.4-20.33,97.61,97.61,0,0,1-18.87-29.38,67.35,67.35,0,0,1-2.8-8.33A39.57,39.57,0,0,1,88.1,97.6a17.22,17.22,0,0,1,.43-4.5,7.5,7.5,0,0,1,2.27-4,6.46,6.46,0,0,1,4.31-1.35A15.76,15.76,0,0,1,99.4,88.45Z" transform="translate(-66 -68.5)"/></svg>