<svg id="final_3" data-name="final 3" xmlns="http://www.w3.org/2000/svg" xmlns:xlink="http://www.w3.org/1999/xlink" viewBox="0 0 115.47 126.23"><defs><style>.cls-1,.cls-5{fill:#39b54a;}.cls-2{fill:url(#linear-gradient);}.cls-3{fill:#ee693d;}.cls-4{fill:#fff;opacity:0.85;}.cls-5{opacity:0.6;}</style><linearGradient id="linear-gradient" x1="132.5" y1="133.79" x2="186.74" y2="133.79" gradientUnits="userSpaceOnUse"><stop offset="0" stop-color="#fec90d"/><stop offset="1" stop-color="#ed593b"/></linearGradient></defs><title>global</title><path class="cls-1" d="M175.12,125.65a46.42,46.42,0,1,1-46.41-46.43A46.34,46.34,0,0,1,175.12,125.65ZM147.39,91.39l1.52,1.87.14-1.26h.74l0-.36-2.44-.24a5.43,5.43,0,0,1,.4-1.09c.52-.82,1.09-1.6,1.64-2.38-6.81-5.83-27.68-7.33-35.81-2.66l1.26.29c-.55.87-2.06.66-1.94,2-2.52,1.74-5.07,3.76-7.86,5.35s-6,2.58-8.26,5.26l-.31-.37,2-2.91c-.35.23-.43.27-.49.32a4.17,4.17,0,0,0-.37.36q-16,17.42-10.87,40.52a4.22,4.22,0,0,0,1.41,2.6,4.63,4.63,0,0,1,1,1.84c.42,1.05.1,2.59,1.88,2.67.07,0,.12.12.19.17,1,.81,2.11,1.57,3.08,2.45.6.55,1.43,1.28,1.46,2,.2,4.08,4.12,6.18,5,9.83,2.07,1.81,3.89,4.07,6.25,5.36,15.58,8.5,31,8.05,45.89-1.69,9.9-6.5,15.82-15.93,18.14-27.55a21.36,21.36,0,0,0,0-4.08h-.37l-.18,1.32c-.12-3-1.25-5.74-1.86-8.82-2.61,2.9-4.73,5.58-4.71,9.38a4.15,4.15,0,0,1-1.42,3c-.71-3.85-1.36-7.41-2-11l-1.09.54c-.61-1-1.22-2-1.76-3a1.22,1.22,0,0,0-1.74-.66,4.77,4.77,0,0,1-2.71.32,27.57,27.57,0,0,1-4.52-2c-.67-.35-1.2-.95-1.85-1.35a3.57,3.57,0,0,0-1.16-.22c-.07.4-.31.87-.17,1.18a11.71,11.71,0,0,0,3.18,4l1.83-1.75a5.12,5.12,0,0,0,1.22.85c1.73.54,2.42,2.13.92,4a19.17,19.17,0,0,1-8.6,5.66c-1,.35-1.44-.07-1.88-.91-1.78-3.37-3.64-6.7-5.43-10.07-.46-.88-.94-1.24-1.84-.6a37.9,37.9,0,0,1,2.1,4.24,16.39,16.39,0,0,0,3.2,5.57,6.5,6.5,0,0,1,1.26,2.45c.49,1.7.92,2,2.59,1.4.83-.31,1.58-.81,2.4-1.15a1.31,1.31,0,0,1,1.06,0,1.14,1.14,0,0,1,.13,1,11.44,11.44,0,0,1-1.43,2.81c-1.94,2.36-4,4.66-6,6.91a3.85,3.85,0,0,0-1.24,3.77,19.34,19.34,0,0,1,.25,2.54,3.14,3.14,0,0,1-1.93,3.62,3.32,3.32,0,0,0-2.17,2.64c-.29,2.45-2,3.87-3.57,5.37a3.54,3.54,0,0,1-5.19-.4c-1.26-1.65-2.44-3.36-3.67-5a5.24,5.24,0,0,1-.74-5,2,2,0,0,0,.16-1.09c-.62-1.72-1.23-3.48-2.82-4.56s-1.94-2.62-1.36-4.44c.12-.38.08-1.08-.16-1.24a1.8,1.8,0,0,0-1.49-.25,1.5,1.5,0,0,1-2.21-.69,1.82,1.82,0,0,0-2.4-.76c-1.4.47-2.88.69-4.32,1.05a2.32,2.32,0,0,0-1.26.5c-.58.72-1,.48-1.6.06A18,18,0,0,1,99,132.18a1.93,1.93,0,0,1-.25-1c.15-2,.28-3.95.56-5.91a9.12,9.12,0,0,1,.94-3c.85-1.56,1.91-3,2.85-4.51a6.36,6.36,0,0,1,4.08-3.22c2.86-.6,5.73-1.11,8.61-1.55a2.11,2.11,0,0,1,1.72.56c.25.33-.12,1.13-.25,2,1.65.67,3.54,1.49,5.48,2.19a1.6,1.6,0,0,0,1.38-.43c2.09-2.51,4.45-.3,6.65-.69l.11.32-1.07,1.36A2.19,2.19,0,0,0,131,118c.88-.59,1.69-1.26,2.91-.8.27.11.89-.3,1.13-.63a4.32,4.32,0,0,0,.7-3.72c-1.28.15-2.49.31-3.71.42a2.66,2.66,0,0,1-3.09-2.05c-.15-.42-.54-1.1-.75-1.08a4.07,4.07,0,0,0-1.39.65c.29.72.71,1.3.57,1.53a2.06,2.06,0,0,1-1.31.82,1.71,1.71,0,0,1-1.2-.52c-.73-.7-1.38-1.49-2.06-2.24a6.12,6.12,0,0,0-3.62-3.44c-.1,1.34,1.13,2.4,3.66,3.41l-1.16,1.75c-.31-.34-.71-.71-1-1.12a6.08,6.08,0,0,0-6.15-2.41c-1.91.34-4.06,1.68-4.5,3.55a2.36,2.36,0,0,1-1.89,1.78c-.71.25-1.45.4-2.19.6-.22-.25-.43-.7-.67-.72-1.65-.12-1.15-1.23-1-2.13a11.54,11.54,0,0,1,.44-1.73c.52-1.62.79-1.75,2.51-1.41a5.27,5.27,0,0,0,1.51.2,1,1,0,0,0,.87-1.79,9.13,9.13,0,0,0-1.33-1.3l2.83-1.36L111,104h-1.85l-.43-.91,1.52-1.28c-.38-.21-.72-.28-.8-.46a16.14,16.14,0,0,1-.52-1.67c.75-.19,1.5-.4,2.26-.53a2.59,2.59,0,0,1,.27.8,7.58,7.58,0,0,0,.33,1.46,15,15,0,0,0,1.1,1.69l4-1.4,1.19-2,.9,1.12c1.11.09,2.37.25,3.63.28.66,0,1.82-.07,1.89-.34.36-1.31,1.5-1.32,2.44-1.71l-.3-.81,3.1-.37v-.46a5.83,5.83,0,0,0-1.22-.19,12.06,12.06,0,0,1-1.76.26,4.68,4.68,0,0,1-1.36-.61,6,6,0,0,1,.65-1.1,12.1,12.1,0,0,1,1.2-1l-.24-.27-3.9,2.29.84.9c-1.64,2.63-2.38,3.06-4.27,2.6l-.54-1.85a6.18,6.18,0,0,1-1.52.79,1.35,1.35,0,0,1-1.14-.37,1.71,1.71,0,0,1,.57-2.4c1.18-.74,2.44-1.39,3.57-2.21,3.37-2.43,7.13-2.78,11.06-2.15a30.19,30.19,0,0,1,3.78,1.11l-.07.36-2.86.52a2,2,0,0,0,2.65.51c.44-.47,1-.87,1.57-1.41,0,0-.05-.29-.07-.48a10.16,10.16,0,0,0,1.83.19,11.79,11.79,0,0,0,2-.38c1.06-.26,2.11-.58,3.17-.81a3.45,3.45,0,0,1,1.24,0,11.78,11.78,0,0,1,1.45.44l-1.47-2.14.43-.38C146,90.18,146.69,90.79,147.39,91.39Z" transform="translate(-82.28 -79.22)"/><path class="cls-1" d="M143.15,203.73c1.24.12,1.51.63,1.13,1.33-.11.21-.53.27-.8.4Z" transform="translate(-82.28 -79.22)"/><path class="cls-1" d="M122.85,110.34c-2.53-1-3.76-2.07-3.66-3.41a6.12,6.12,0,0,1,3.62,3.44Z" transform="translate(-82.28 -79.22)"/><path class="cls-1" d="M147.39,91.4l2.44.24,0,.36h-.74l-.14,1.26-1.52-1.86Z" transform="translate(-82.28 -79.22)"/><path class="cls-1" d="M144.58,149.14c1,1.8-2.33,7.54-4.52,7.88a8.64,8.64,0,0,1,0-1.69c.21-1,.53-2,.84-3,.07-.21.29-.49.48-.52,1.24-.18,1.84-1.1,2.46-2A3.77,3.77,0,0,1,144.58,149.14Z" transform="translate(-82.28 -79.22)"/><path class="cls-1" d="M143.32,88.83,140.6,90l1.08,1.66L138.92,91c.6-2.18,2.27-2.32,3.86-2.56C143,88.39,143.17,88.71,143.32,88.83Z" transform="translate(-82.28 -79.22)"/><path class="cls-1" d="M108.56,100.93c.28,1.38-.71,2.42-2.39,2.63C106.17,102.07,106.78,101.38,108.56,100.93Z" transform="translate(-82.28 -79.22)"/><path class="cls-1" d="M107.5,95.37a21.38,21.38,0,0,1-2.21,1.07,1.12,1.12,0,0,1-.92-.32.89.89,0,0,1,0-.85,1.48,1.48,0,0,1,.92-.35c.71,0,1.42,0,2.13,0Z" transform="translate(-82.28 -79.22)"/><path class="cls-1" d="M119,112.14a6.14,6.14,0,0,1,1.55,0c.24.07.38.55.56.85-.32.08-.69.3-1,.21a6.17,6.17,0,0,1-1.24-.76Z" transform="translate(-82.28 -79.22)"/><path class="cls-1" d="M164.69,132.84l-.36,2.3-.54-.09.4-2.3Z" transform="translate(-82.28 -79.22)"/><path class="cls-2" d="M186.74,133.79a27.12,27.12,0,1,1-27.09-27.1A27,27,0,0,1,186.74,133.79Zm-7,0a20.08,20.08,0,1,0-20.17,20.05A20.07,20.07,0,0,0,179.71,133.79Z" transform="translate(-82.28 -79.22)"/><path class="cls-3" d="M176.27,158.55l8.21-8.19c-.11-.08.05,0,.18.13,3.77,3.76,7.58,7.48,11.3,11.29a5.85,5.85,0,0,1-2,9.69,5.31,5.31,0,0,1-5.89-1C184,166.53,180.11,162.43,176.27,158.55Z" transform="translate(-82.28 -79.22)"/><path class="cls-4" d="M179.71,133.79a20.08,20.08,0,1,1-20.06-20A20,20,0,0,1,179.71,133.79ZM162.44,148.9l.09-.41a22.74,22.74,0,0,0-1.91-1.35c-4.78-2.75-8.5-6.3-9.94-11.91a8,8,0,0,0-2.51-3.52c-1.24-1.13-2.7-.49-3,1.16a7.78,7.78,0,0,0-.1,2.31c.86,7.42,8.28,14,15.78,14A9.16,9.16,0,0,0,162.44,148.9Z" transform="translate(-82.28 -79.22)"/><path class="cls-5" d="M162.44,148.9a9.16,9.16,0,0,1-1.62.28c-7.5,0-14.92-6.58-15.78-14a7.78,7.78,0,0,1,.1-2.31c.33-1.65,1.79-2.29,3-1.16a8,8,0,0,1,2.51,3.52c1.44,5.61,5.16,9.16,9.94,11.91a22.74,22.74,0,0,1,1.91,1.35Z" transform="translate(-82.28 -79.22)"/></svg>