<svg id="fiinal_5" data-name="fiinal 5" xmlns="http://www.w3.org/2000/svg" viewBox="0 0 88.88 112.43"><defs><style>.cls-1{fill:#39b54a;}.cls-2{fill:none;stroke:#39b54a;stroke-linecap:round;stroke-miterlimit:10;stroke-width:3px;}</style></defs><title>factssheets</title><path class="cls-1" d="M161.88,122.47v45.12c0,3.91-1.64,5.53-5.55,5.53H89.27c-3.76,0-5.41-1.65-5.41-5.41q0-37.77,0-75.55a3.27,3.27,0,0,1,1-2.54q8.65-8.55,17.21-17.2a2.65,2.65,0,0,1,2.1-.86q26.11,0,52.23,0c3.7,0,5.44,1.71,5.45,5.39ZM107.39,77.86v1.55c0,3.63,0,7.26,0,10.9a4.48,4.48,0,0,1-4.84,4.81c-3.64,0-7.27,0-10.9,0-1.19,0-1.58.27-1.58,1.52q.06,34.61,0,69.21c0,.32.06.63.09,1h65.46v-1.6q0-11.78,0-23.55V104.86c0-8.49,0-17,0-25.47,0-1.21-.29-1.56-1.53-1.55-15.08,0-30.16,0-45.25,0Z" transform="translate(-83.84 -71.56)"/><path class="cls-1" d="M94.68,175h6.08a1.15,1.15,0,0,1,.15.36c.18,2.39.18,2.39,2.58,2.39h62.92V88.78l-2.68-.13V82.49a51,51,0,0,1,5.11,0,4.36,4.36,0,0,1,3.86,4.33c0,.89,0,1.78,0,2.66V170c0,3,0,5.91,0,8.87,0,3.3-1.81,5.13-5.08,5.13H99.83c-3.33,0-5.13-1.84-5.15-5.2Z" transform="translate(-83.84 -71.56)"/><line class="cls-2" x1="9.66" y1="38.94" x2="66.66" y2="38.94"/><line class="cls-2" x1="9.66" y1="47.94" x2="66.66" y2="47.94"/><line class="cls-2" x1="9.66" y1="56.94" x2="66.66" y2="56.94"/><line class="cls-2" x1="9.66" y1="65.94" x2="66.66" y2="65.94"/></svg>