<svg id="final_6" data-name="final 6" xmlns="http://www.w3.org/2000/svg" xmlns:xlink="http://www.w3.org/1999/xlink" viewBox="0 0 125.97 92.97"><defs><style>.cls-1{fill:#39b54a;}.cls-2{fill:#fcba1f;}.cls-3{fill:#fff;}.cls-4{fill:url(#linear-gradient);}.cls-5{fill:url(#linear-gradient-2);}</style><linearGradient id="linear-gradient" x1="143.98" y1="158.34" x2="182.26" y2="158.34" gradientUnits="userSpaceOnUse"><stop offset="0" stop-color="#fcba1f"/><stop offset="0.21" stop-color="#fbb620"/><stop offset="0.42" stop-color="#faab23"/><stop offset="0.61" stop-color="#f79829"/><stop offset="0.81" stop-color="#f27d31"/><stop offset="1" stop-color="#ed5b3b"/></linearGradient><linearGradient id="linear-gradient-2" x1="162.34" y1="142.38" x2="200.42" y2="142.38" gradientUnits="userSpaceOnUse"><stop offset="0" stop-color="#fcba1f"/><stop offset="0.04" stop-color="#fbb221"/><stop offset="0.23" stop-color="#f58f2a"/><stop offset="0.42" stop-color="#f17332"/><stop offset="0.61" stop-color="#ee6037"/><stop offset="0.8" stop-color="#ed543a"/><stop offset="1" stop-color="#ec503b"/></linearGradient></defs><title>videos and links</title><path class="cls-1" d="M169.62,124.93q0-16.2,0-32.41a14.09,14.09,0,0,0-.1-1.84,4.34,4.34,0,0,0-3.82-3.83,19.61,19.61,0,0,0-2.42-.12H80.83c-.57,0-1.14,0-1.71,0-3,.24-4.66,2-4.67,5q0,28.88,0,57.74c3.72.33,7.48.47,11.23.53.06-.33.13-.65.21-1s.19-.6.3-.9h-.79V105.5h73.24v1.83q0,14,0,27.94A43.44,43.44,0,0,0,162,132C165,129,166.61,127.61,169.62,124.93ZM97.12,99.71H85.76v-7H97.12Zm20.37-.09H106.16v-7h11.33Zm20.43,0H126.51v-7h11.41Zm20.37,0H147v-7h11.33Z" transform="translate(-74.45 -86.72)"/><path class="cls-2" d="M113.67,125.53V114.69a3.14,3.14,0,0,1,0-1.27c.41-.8.8-1.85,1.49-2.18a2.81,2.81,0,0,1,2.45.44c4.87,3.95,9.66,8,14.45,12a2.3,2.3,0,0,1,0,3.81c-4.81,4.09-9.65,8.17-14.56,12.15a3.23,3.23,0,0,1-2.49.37c-1.14-.31-1.41-1.44-1.41-2.55,0-4,0-8,0-12Z" transform="translate(-74.45 -86.72)"/><path class="cls-3" d="M137.92,92.66v7" transform="translate(-74.45 -86.72)"/><path class="cls-3" d="M126.51,99.66v-7" transform="translate(-74.45 -86.72)"/><path class="cls-1" d="M141,156a67.44,67.44,0,0,1,6-6.89l0-.11.29-.24c1.85-1.89.71-.76,5.23-5.83H89c-4.84.19-9.7.13-14.54.2v13.55c0,3,1.64,4.75,4.67,5,.57.05,1.14,0,1.71,0h54.68a2,2,0,0,0,1.32-.52C137.7,160.4,137.09,161.2,141,156Zm-14.49-7.23h11.41v7H126.51Zm-29.39,7H85.76v-7.05H97.12Zm20.37,0H106.16v-6.95h11.33Z" transform="translate(-74.45 -86.72)"/><path class="cls-3" d="M137.92,155.77v-7" transform="translate(-74.45 -86.72)"/><path class="cls-3" d="M126.51,148.77v7" transform="translate(-74.45 -86.72)"/><path class="cls-4" d="M177.05,150.26c-1.51-1.46-3.09-3-4.74-4.55-2-1.84-3.86-1.76-5.69.23q-7,7.6-14,15.26c-1.74,1.91-1.64,3.78.25,5.55,1.59,1.5,3.19,3,4.83,4.42a3.45,3.45,0,0,0,5.3-.24c1.7-1.8,3.32-3.67,4.7-5.21l8.41,1.68a8,8,0,0,1-.64.86c-2.34,2.57-4.68,5.15-7.05,7.7a10.82,10.82,0,0,1-15.64.74c-1.8-1.61-3.6-3.23-5.35-4.9a10.72,10.72,0,0,1-.78-15q7.38-8.36,15.06-16.44a10.75,10.75,0,0,1,14.75-.84c2,1.65,3.84,3.48,5.78,5.25Z" transform="translate(-74.45 -86.72)"/><path class="cls-5" d="M176.7,135l-8.43-1.75c.19-.24.49-.64.82-1,2.35-2.57,4.65-5.18,7.06-7.69a10.82,10.82,0,0,1,15.41-.61c1.81,1.6,3.61,3.22,5.36,4.89a10.79,10.79,0,0,1,.65,15.27q-7.33,8.16-14.82,16.17a10.79,10.79,0,0,1-14.88.86c-1.94-1.62-3.75-3.4-5.53-5l5.18-5.57c1.4,1.37,3,3,4.6,4.47,2,1.84,3.83,1.77,5.68-.24q7-7.6,14-15.26c1.74-1.91,1.63-3.81-.25-5.57q-2.33-2.19-4.7-4.3c-1.9-1.69-3.81-1.61-5.56.27S178,133.53,176.7,135Z" transform="translate(-74.45 -86.72)"/></svg>