<?xml version="1.0" encoding="UTF-8" standalone="no"?>
<svg
   xmlns:dc="http://purl.org/dc/elements/1.1/"
   xmlns:cc="http://creativecommons.org/ns#"
   xmlns:rdf="http://www.w3.org/1999/02/22-rdf-syntax-ns#"
   xmlns:svg="http://www.w3.org/2000/svg"
   xmlns="http://www.w3.org/2000/svg"
   height="77.743629"
   width="71.985695"
   id="svg132"
   version="1.1"
   viewBox="0 0 71.985697 77.743628">
  <metadata
     id="metadata136">
    <rdf:RDF>
      <cc:Work
         rdf:about="">
        <dc:format>image/svg+xml</dc:format>
        <dc:type
           rdf:resource="http://purl.org/dc/dcmitype/StillImage" />
        <dc:title></dc:title>
      </cc:Work>
    </rdf:RDF>
  </metadata>
  <defs
     id="defs31">
    <style
       id="style2">.cls-1{fill:#020202;}.cls-2{fill:#54270f;}.cls-3{fill:#b8bc33;}.cls-4{fill:#0b8040;}.cls-5{fill:#522713;}.cls-6{fill:url(#linear-gradient);}.cls-7{fill:#f06e5a;}.cls-8{fill:#ffcf5d;}.cls-9{fill:url(#linear-gradient-2);}.cls-10{fill:url(#linear-gradient-3);}.cls-11{fill:#363636;}</style>
    <linearGradient
       gradientUnits="userSpaceOnUse"
       gradientTransform="matrix(-2.36,1.36,1.36,2.35,-3778.05,-2201.7)"
       y2="1410.12"
       x2="-789.60999"
       y1="1410.12"
       x1="-796.26001"
       id="linear-gradient">
      <stop
         id="stop4"
         stop-color="#81bd67"
         offset="0" />
      <stop
         id="stop6"
         stop-color="#7fbb63"
         offset="0.23" />
      <stop
         id="stop8"
         stop-color="#6bb557"
         offset="0.48" />
      <stop
         id="stop10"
         stop-color="#54ad48"
         offset="0.74" />
      <stop
         id="stop12"
         stop-color="#1aa34a"
         offset="1" />
    </linearGradient>
    <linearGradient
       gradientUnits="userSpaceOnUse"
       gradientTransform="matrix(2.16,1.08,-1.13,2.06,1231.61,-2356.46)"
       y2="1132.92"
       x2="48.759998"
       y1="1130.8"
       x1="44.419998"
       id="linear-gradient-2">
      <stop
         id="stop15"
         stop-color="#81bd67"
         offset="0.23" />
      <stop
         id="stop17"
         stop-color="#7fbb63"
         offset="0.23" />
      <stop
         id="stop19"
         stop-color="#6bb557"
         offset="0.48" />
      <stop
         id="stop21"
         stop-color="#54ad48"
         offset="0.74" />
      <stop
         id="stop23"
         stop-color="#1aa34a"
         offset="1" />
    </linearGradient>
    <linearGradient
       gradientUnits="userSpaceOnUse"
       gradientTransform="matrix(0.53,0,0,-0.53,-566.81,-2099.28)"
       y2="-4044.03"
       x2="1152.04"
       y1="-4049.3201"
       x1="1154.6801"
       id="linear-gradient-3">
      <stop
         id="stop26"
         stop-color="#a48c31"
         offset="0" />
      <stop
         id="stop28"
         stop-color="#cfdb27"
         offset="1" />
    </linearGradient>
  </defs>
  <path
     style="fill:#212121;fill-opacity:1"
     id="path33"
     d="m 32.27,69.69 0.26,0.08 A 2.64,2.64 0 0 1 34,74 a 3.67,3.67 0 0 1 -2.53,1.42 13.55,13.55 0 0 1 -2.11,0.09 h -3.58 c -0.18,0 -0.27,0 -0.27,-0.23 q 0,-5.06 0,-10.09 c 0,-0.12 0,-0.23 0.17,-0.22 1.84,0 3.69,-0.06 5.53,0.06 a 3.46,3.46 0 0 1 1.43,0.41 2.3,2.3 0 0 1 0.22,3.9 c -0.17,0.11 -0.36,0.21 -0.59,0.35 z m -4.05,2.53 c 0,0.37 0,0.75 0,1.12 0,0.17 0.05,0.22 0.22,0.22 0.59,0 1.18,0 1.78,0 A 2,2 0 0 0 30.81,73.44 1.18,1.18 0 0 0 31.7,72 c -0.06,-0.59 -0.41,-0.91 -1.12,-1 -0.71,-0.09 -1.46,0 -2.2,0 -0.14,0 -0.16,0.06 -0.16,0.18 0.01,0.3 0,0.67 0,1.04 z m 0,-4.25 c 0,0.32 0,0.64 0,1 0,0.12 0,0.19 0.16,0.19 a 12.6,12.6 0 0 0 1.74,-0.07 1,1 0 0 0 0.93,-1.1 1,1 0 0 0 -0.93,-1 14.61,14.61 0 0 0 -1.75,-0.05 c -0.15,0 -0.15,0.08 -0.15,0.19 0.01,0.24 0,0.54 0,0.87 z"
     class="cls-1" />
  <path
     style="fill:#212121;fill-opacity:1"
     id="path35"
     d="m 8.52,70.2 c 0,-1.65 0,-3.3 0,-5 0,-0.22 0,-0.31 0.29,-0.31 1.35,0 2.7,0 4,0 a 6.39,6.39 0 0 1 3,0.68 4.86,4.86 0 0 1 2.6,4.57 5,5 0 0 1 -4.74,5.2 c -1.67,0.15 -3.35,0 -5,0.08 -0.24,0 -0.19,-0.14 -0.19,-0.28 z m 2.72,0 c 0,1 0,2.05 0,3.07 0,0.18 0,0.25 0.24,0.24 a 14.62,14.62 0 0 0 1.62,-0.06 2.72,2.72 0 0 0 2.42,-2 4.45,4.45 0 0 0 0.15,-1.58 A 2.84,2.84 0 0 0 13.42,67 9.48,9.48 0 0 0 11.5,66.89 c -0.22,0 -0.27,0.06 -0.27,0.27 0.01,1.03 0.01,2.04 0.01,3.05 z"
     class="cls-1" />
  <path
     style="fill:#212121;fill-opacity:1"
     id="path37"
     d="m 50,73.53 c 0,0.36 0,0.72 0,1.09 a 0.22,0.22 0 0 1 -0.14,0.23 7.51,7.51 0 0 1 -5.5,0.58 4.58,4.58 0 0 1 -3.39,-4 7.11,7.11 0 0 1 0.17,-3.11 4.69,4.69 0 0 1 4,-3.47 7.68,7.68 0 0 1 4.64,0.67 0.34,0.34 0 0 1 0.23,0.36 c 0,0.67 0,1.35 0,2 0,0.09 0.06,0.23 -0.06,0.27 a 0.37,0.37 0 0 1 -0.37,-0.08 7,7 0 0 0 -1,-0.74 3.49,3.49 0 0 0 -2.27,-0.54 2.65,2.65 0 0 0 -2.31,1.72 4.51,4.51 0 0 0 0,3.33 2.87,2.87 0 0 0 3.55,1.72 5.3,5.3 0 0 0 2,-1.13 0.7,0.7 0 0 1 0.16,-0.14 c 0.18,-0.09 0.3,0 0.3,0.18 C 50,72.83 50,73.18 50,73.53 Z"
     class="cls-1" />
  <path
     style="fill:#212121;fill-opacity:1"
     id="path39"
     d="m 55.74,75.74 a 5.49,5.49 0 0 1 -2,-0.3 3.73,3.73 0 0 1 -2.42,-3.44 5.35,5.35 0 0 1 0.2,-2 3.59,3.59 0 0 1 2.75,-2.52 5.93,5.93 0 0 1 2.9,0 3.67,3.67 0 0 1 2.83,3.14 5.82,5.82 0 0 1 -0.19,2.38 3.77,3.77 0 0 1 -3.42,2.66 z m 1.63,-4.29 a 4.1,4.1 0 0 0 -0.2,-1.33 1.47,1.47 0 0 0 -1.52,-1.05 1.41,1.41 0 0 0 -1.49,1 4.43,4.43 0 0 0 0,2.81 1.4,1.4 0 0 0 1.4,1 1.48,1.48 0 0 0 1.58,-0.88 3.9,3.9 0 0 0 0.23,-1.55 z"
     class="cls-1" />
  <path
     style="fill:#212121;fill-opacity:1"
     id="path41"
     d="m 65.72,75.74 a 5.78,5.78 0 0 1 -1.95,-0.29 3.66,3.66 0 0 1 -2.43,-3 5.51,5.51 0 0 1 0.09,-2.25 3.58,3.58 0 0 1 2.82,-2.74 5.81,5.81 0 0 1 2.9,0 3.66,3.66 0 0 1 2.76,3.11 5.48,5.48 0 0 1 -0.14,2.43 3.75,3.75 0 0 1 -3.41,2.66 z m 1.61,-4.17 a 4,4 0 0 0 -0.19,-1.46 1.48,1.48 0 0 0 -1.52,-1 1.42,1.42 0 0 0 -1.49,1 4.5,4.5 0 0 0 0,2.81 1.4,1.4 0 0 0 1.37,1 1.49,1.49 0 0 0 1.6,-0.92 3.37,3.37 0 0 0 0.23,-1.43 z"
     class="cls-1" />
  <path
     style="fill:#212121;fill-opacity:1"
     id="path43"
     d="m 20.41,71.5 c 0,-1.22 0,-2.45 0,-3.68 0,-0.22 0,-0.29 0.28,-0.28 h 2 c 0.18,0 0.23,0 0.23,0.23 v 7.48 c 0,0.18 0,0.25 -0.23,0.24 h -2.03 c -0.2,0 -0.25,0 -0.25,-0.25 0.01,-1.24 0,-2.49 0,-3.74 z"
     class="cls-1" />
  <path
     style="fill:#54270f"
     id="path45"
     d="m 39,71.52 c 0,1.22 0,2.43 0,3.65 0,0.24 0,0.34 -0.31,0.33 -0.67,0 -1.33,0 -2,0 -0.18,0 -0.27,0 -0.27,-0.24 0,-2.49 0,-5 0,-7.48 0,-0.2 0.07,-0.23 0.25,-0.23 h 2.05 c 0.21,0 0.27,0.06 0.27,0.27 C 39,69 39,70.28 39,71.52 Z"
     class="cls-2" />
  <path
     style="fill:#b8bc33"
     id="path47"
     d="m 51.13,56.86 v 0 c 0,0 0,0 0,0 z"
     class="cls-3" />
  <path
     style="fill:#212121;fill-opacity:1"
     d="m 22.86,65.1 a 1.37,1.37 0 1 1 -1.37,-1.37 1.37,1.37 0 0 1 1.37,1.37 z"
     class="cls-4"
     id="path39001" />
  <g
     transform="translate(2,2)"
     id="path36660">
    <path
       style="fill:#522713"
       id="path50"
       d="M 34.68,64 A 0.6,0.6 0 0 1 34.09,63.52 49.23,49.23 0 0 0 27.29,47 49,49 0 0 0 16,34.71 a 0.62,0.62 0 0 1 -0.11,-0.85 0.61,0.61 0 0 1 0.85,-0.11 50.39,50.39 0 0 1 11.57,12.62 50.47,50.47 0 0 1 6.33,14.26 70.15,70.15 0 0 1 12.9,-27.26 0.6,0.6 0 0 1 0.85,-0.11 0.61,0.61 0 0 1 0.11,0.85 68.72,68.72 0 0 0 -13.23,29.4 0.6,0.6 0 0 1 -0.59,0.49 z"
       class="cls-5" />
  </g>
  <path
     style="fill:url(#linear-gradient)"
     id="path53"
     d="M 10.83,41 C 6,39 2,24.09 2,24.09 c 0,0 11.3,-2.44 16.07,-0.41 7.4,3 4.42,9.87 12.24,21.48 0,-0.09 -14.75,-2.26 -19.48,-4.2 z"
     class="cls-6" />
  <g
     transform="translate(2,2)"
     id="path36444">
    <path
       style="fill:#0b8040"
       id="path55"
       d="m 19.39,63.32 a 0.22,0.22 0 0 1 -0.13,0 A 32.65,32.65 0 0 1 5.7,46 32.15,32.15 0 0 1 21,7.7 32.6,32.6 0 0 1 42.74,4.54 30,30 0 0 1 60.93,16.09 26.13,26.13 0 0 1 65.28,37.09 24.57,24.57 0 0 1 53.73,52.49 0.26,0.26 0 1 1 53.47,52.05 24,24 0 0 0 64.79,36.94 25.61,25.61 0 0 0 60.52,16.39 29.54,29.54 0 0 0 42.63,5 31.64,31.64 0 0 0 6.87,24.26 a 31.63,31.63 0 0 0 12.66,38.59 0.26,0.26 0 0 1 0.08,0.35 0.27,0.27 0 0 1 -0.22,0.12 z"
       class="cls-4" />
  </g>
  <g
     transform="translate(2,2)"
     id="g36440">
    <path
       style="fill:#f06e5a"
       d="M 28.7,32 A 28.33,28.33 0 0 1 26,26 21.18,21.18 0 0 1 25.49,18.15 22.56,22.56 0 0 1 27.63,10.88 9.84,9.84 0 0 0 28.75,16 17.51,17.51 0 0 1 30.52,5.87 14.68,14.68 0 0 1 36.19,0 C 35.12,1.76 35,4.55 35.4,6.9 a 37.43,37.43 0 0 0 2.09,6.53 20.27,20.27 0 0 1 1.59,6.75 31,31 0 0 0 1.16,-3.89 11.94,11.94 0 0 0 0.19,-4.29 14.47,14.47 0 0 1 1.57,5.32 35.14,35.14 0 0 1 0,6.24 22.55,22.55 0 0 1 -1.35,6.53 9.33,9.33 0 0 1 -4,4.77 A 6.86,6.86 0 0 1 28.7,32 Z"
       class="cls-7"
       id="path36381" />
    <path
       style="fill:#ffcf5d"
       d="m 32.34,34.68 c 5.21,3.21 10.36,-6.52 7.5,-14 0,-0.1 -0.06,-0.1 -0.06,-0.2 0.25,4.11 -0.38,7.12 -1.59,8.82 A 14.21,14.21 0 0 0 37.62,21.68 C 36.86,19.33 35.77,17.23 35,15 a 15.74,15.74 0 0 1 -1.13,-7.5 15.22,15.22 0 0 0 -3,7.42 20.47,20.47 0 0 0 0.63,8.83 8.13,8.13 0 0 1 -1.72,-4.82 14.51,14.51 0 0 0 -1.59,6.92 c 0,3.92 2,7.43 4.2,8.83 z"
       class="cls-8"
       id="path36383" />
  </g>
  <path
     style="fill:url(#linear-gradient-2)"
     d="m 60,32.87 c 4.28,-1.87 7.26,-14.76 7.26,-14.76 0,0 -10.19,-1.68 -14.38,0.23 -6.52,2.86 -3.6,8.66 -10.15,18.84 0,-0.08 13.1,-2.48 17.25,-4.31 z"
     class="cls-9"
     data-name="XMLID 29 -0"
     id="XMLID_29_-0" />
  <path
     style="fill:#212121;fill-opacity:1"
     d="m 49.09,52.63 c 4.11,-3.18 7.38,-3.16 9.52,-0.4 2.14,2.76 0.84,6.24 -2.86,9.11"
     id="path38734" />
  <g
     transform="translate(2,2)"
     style="fill:#212121;fill-opacity:1"
     id="path38783">
    <path
       style="fill:#212121;fill-opacity:1"
       id="path63"
       d="m 50.66,59.41 a 1.09,1.09 0 0 1 -0.67,-2 l 2.94,-2.26 a 1.0941321,1.0941321 0 1 1 1.34,1.73 l -3,2.26 a 1.08,1.08 0 0 1 -0.61,0.27 z" />
  </g>
  <g
     transform="translate(2,2)"
     style="fill:#212121;fill-opacity:1"
     id="path38783-4">
    <path
       style="fill:#212121;fill-opacity:1"
       id="path66"
       d="M 47.27,55 A 1.09,1.09 0 0 1 46.6,53 l 2.94,-2.27 a 1.1,1.1 0 0 1 1.53,0.2 1.09,1.09 0 0 1 -0.2,1.53 l -2.94,2.27 A 1.09,1.09 0 0 1 47.27,55 Z" />
  </g>
  <path
     style="fill:url(#linear-gradient-3)"
     d="m 49.55,57.21 a 17.07,17.07 0 0 0 -1.42,1.4 6.27,6.27 0 0 0 -1.08,1.57 2.69,2.69 0 0 0 -0.15,1.82 2.09,2.09 0 0 0 1.23,1.3 2,2 0 0 0 1.13,0.1 1.84,1.84 0 0 0 1,-0.57 1.64,1.64 0 0 0 0.43,-1 1.6,1.6 0 0 0 -0.34,-1.07 7.53,7.53 0 0 0 -0.57,-0.56 2.35,2.35 0 0 1 -0.22,-3"
     class="cls-10"
     id="path4279-4" />
</svg>
